<?xml version="1.0" standalone="no"?>
<!DOCTYPE svg PUBLIC "-//W3C//DTD SVG 20010904//EN"
 "http://www.w3.org/TR/2001/REC-SVG-20010904/DTD/svg10.dtd">
<svg version="1.0" xmlns="http://www.w3.org/2000/svg"
 width="700.000000pt" height="700.000000pt" viewBox="0 0 700.000000 700.000000"
 preserveAspectRatio="xMidYMid meet">
<metadata>
Created by potrace 1.11, written by Peter Selinger 2001-2013
</metadata>
<g transform="translate(0.000000,700.000000) scale(0.100000,-0.100000)"
fill="#000000" stroke="none">
<path d="M2300 5714 c-533 -45 -892 -135 -1246 -312 -493 -247 -795 -621 -870
-1077 -24 -147 -15 -362 21 -520 50 -221 146 -441 285 -653 102 -156 231 -317
241 -300 4 7 53 181 109 387 l101 374 -45 97 c-129 273 -174 547 -131 791 84
484 497 867 1125 1043 139 39 338 77 505 97 163 20 623 17 805 -5 531 -62
1028 -202 1495 -420 84 -40 107 -46 150 -44 l50 3 -60 28 c-534 253 -1142 421
-1775 493 -127 14 -655 27 -760 18z"/>
<path d="M1200 3869 c-168 -617 -306 -1127 -308 -1135 -3 -12 29 -14 191 -14
l194 0 121 448 c67 246 127 468 134 494 l12 48 440 2 441 3 36 130 36 130
-439 3 c-412 2 -439 3 -434 20 3 9 41 152 86 317 45 165 88 324 96 353 l15 52
779 0 c429 0 780 -3 780 -6 0 -3 -119 -444 -265 -979 -146 -536 -265 -979
-265 -985 0 -6 65 -10 190 -10 l189 0 9 33 c5 17 125 461 268 985 l259 952
418 0 c332 0 417 -3 411 -12 -5 -7 -34 -49 -65 -94 -122 -172 -169 -290 -169
-428 0 -112 34 -183 134 -282 58 -56 93 -81 167 -117 371 -178 384 -185 435
-235 73 -72 99 -129 99 -218 -1 -139 -84 -252 -238 -324 -45 -21 -118 -46
-162 -56 -103 -23 -289 -23 -400 0 -67 15 -228 65 -286 90 -13 5 -30 -21 -85
-126 -38 -73 -70 -138 -72 -144 -4 -15 191 -71 313 -89 130 -19 387 -19 498 0
420 73 732 326 828 670 59 210 2 385 -159 489 -37 24 -163 92 -280 151 -304
152 -376 223 -377 370 0 63 4 77 35 129 95 159 263 236 511 236 133 0 215 -14
342 -56 43 -14 81 -24 84 -21 3 3 38 66 78 139 49 89 70 135 62 139 -25 14
-152 41 -255 54 -90 12 -433 15 -2117 15 l-2010 0 -305 -1121z"/>
<path d="M5862 4472 l-32 -59 56 -64 c580 -666 628 -1385 125 -1879 -261 -257
-630 -425 -1110 -505 -375 -62 -824 -59 -1241 11 -771 128 -1504 444 -2056
887 l-81 65 -22 -82 c-12 -44 -36 -132 -53 -193 l-30 -113 -197 -2 -196 -3 80
-69 c659 -564 1628 -986 2595 -1130 296 -44 400 -51 735 -51 333 1 476 12 715
56 759 139 1305 480 1549 967 160 318 172 726 34 1102 -77 210 -222 460 -389
670 -65 82 -426 450 -442 450 -4 0 -22 -26 -40 -58z"/>
</g>
</svg>
