<?xml version="1.0" encoding="UTF-8" standalone="no"?>
<!-- Created with Inkscape (http://www.inkscape.org/) -->

<svg
   xmlns:dc="http://purl.org/dc/elements/1.1/"
   xmlns:cc="http://creativecommons.org/ns#"
   xmlns:rdf="http://www.w3.org/1999/02/22-rdf-syntax-ns#"
   xmlns:svg="http://www.w3.org/2000/svg"
   xmlns="http://www.w3.org/2000/svg"
   xmlns:sodipodi="http://sodipodi.sourceforge.net/DTD/sodipodi-0.dtd"
   xmlns:inkscape="http://www.inkscape.org/namespaces/inkscape"
   id="svg3002"
   version="1.1"
   inkscape:version="0.92.2 (5c3e80d, 2017-08-06)"
   width="300"
   height="70"
   xml:space="preserve"
   sodipodi:docname="logo_blue-gray_swoosh_ALTERNATE_DARK_OUTLINE_LIGHT_SOLUTIONS_300x70px.svg"><metadata
     id="metadata3008"><rdf:RDF><cc:Work
         rdf:about=""><dc:format>image/svg+xml</dc:format><dc:type
           rdf:resource="http://purl.org/dc/dcmitype/StillImage" /><dc:title></dc:title></cc:Work></rdf:RDF></metadata><defs
     id="defs3006" /><sodipodi:namedview
     pagecolor="#ffffff"
     bordercolor="#666666"
     borderopacity="1"
     objecttolerance="10"
     gridtolerance="10"
     guidetolerance="10"
     inkscape:pageopacity="0"
     inkscape:pageshadow="2"
     inkscape:window-width="958"
     inkscape:window-height="1128"
     id="namedview3004"
     showgrid="false"
     inkscape:zoom="2.8284271"
     inkscape:cx="211.05738"
     inkscape:cy="58.540367"
     inkscape:window-x="2873"
     inkscape:window-y="0"
     inkscape:window-maximized="0"
     inkscape:current-layer="g3010" /><g
     id="g3010"
     inkscape:groupmode="layer"
     inkscape:label="ink_ext_XXXXXX"
     transform="matrix(1.25,0,0,-1.25,0,69.999994)"><path
       inkscape:connector-curvature="0"
       id="path3030"
       style="fill:#485b6e;fill-opacity:1;fill-rule:nonzero;stroke:#080a3e;stroke-width:0.40000001;stroke-miterlimit:4;stroke-dasharray:none;stroke-opacity:1"
       d="M 59.416618,22.53153 C 56.573568,13.67652 42.379428,10.19271 27.712468,14.75002 13.041118,19.309 3.453858,30.18096 6.295138,39.0379 c 2.84217,8.85607 17.03544,12.34155 31.70679,7.78301 14.66871,-4.55854 24.25598,-15.43419 21.41469,-24.28938 z m -20.96297,24.51436 c -17.4186,5.4119 -34.28002,1.27432 -37.65389,-9.24451 -3.37387,-10.5162 8.01238,-23.43313 25.4345,-28.84695 17.42037,-5.41278 34.28003,-1.27362 37.65565,9.24161 3.37387,10.51901 -8.01238,23.43532 -25.43626,28.84985" /><path
       inkscape:connector-curvature="0"
       id="path3032"
       style="fill:#1e59ae;fill-opacity:1;fill-rule:nonzero;stroke:none;stroke-width:0.87883985"
       d="m 5.992818,19.59357 6.44278,23.66452 h 38.95809 c 0,0 3.62521,-0.0888 5.31522,-1.23477 l -2.3632,-4.25446 c 0,0 -3.77198,2.18567 -7.25746,0.57125 0,0 -3.68673,-2.07495 0.11865,-4.14813 0,0 2.63124,-1.23125 4.04354,-2.07494 0,0 3.3809,-1.70407 2.11361,-5.88559 0,0 -1.07219,-5.48484 -8.3604,-7.02202 0,0 -4.88811,-1.05223 -9.58551,1.20234 l 2.2841,4.35729 c 0,0 5.10079,-3.02409 9.19179,-0.33484 0,0 2.67958,2.38078 -0.97903,4.14725 0,0 -1.58718,0.76898 -2.01254,0.92366 -0.42536,0.15292 -3.17876,1.22862 -4.02948,3.84141 0,0 -0.87708,2.22698 1.4079,5.45408 h -5.6984 L 30.390298,19.7377 h -5.54285 l 5.21064,19.14026 h -13.23884 l -1.46239,-5.37235 h 8.47553 l -1.17413,-4.32214 h -8.47553 l -2.59609,-9.5855 -5.59382,-0.004" /><path
       inkscape:connector-curvature="0"
       id="path3034"
       style="fill:#080a3e;fill-opacity:1;stroke:#9ebddb;stroke-width:1.7576797;stroke-linecap:butt;stroke-linejoin:miter;stroke-miterlimit:4;stroke-dasharray:none;stroke-opacity:1"
       d="m 5.992818,19.59357 6.44278,23.66452 h 38.95809 c 0,0 3.62521,-0.0888 5.31522,-1.23477 l -2.3632,-4.25446 c 0,0 -3.77198,2.18567 -7.25746,0.57125 0,0 -3.68673,-2.07495 0.11865,-4.14813 0,0 2.63124,-1.23125 4.04354,-2.07494 0,0 3.3809,-1.70407 2.11361,-5.88559 0,0 -1.07219,-5.48484 -8.3604,-7.02202 0,0 -4.88811,-1.05223 -9.58551,1.20234 l 2.2841,4.35729 c 0,0 5.10079,-3.02409 9.19179,-0.33484 0,0 2.67958,2.38078 -0.97903,4.14725 0,0 -1.58718,0.76898 -2.01254,0.92366 -0.42536,0.15292 -3.17876,1.22862 -4.02948,3.84141 0,0 -0.87708,2.22698 1.4079,5.45408 h -5.6984 L 30.390298,19.7377 h -5.54285 l 5.21064,19.14026 h -13.23884 l -1.46239,-5.37235 h 8.47553 l -1.17413,-4.32214 h -8.47553 l -2.59609,-9.5855 z" /><path
       inkscape:connector-curvature="0"
       id="path3036"
       style="fill:#9ebddb;fill-opacity:1;fill-rule:nonzero;stroke:none;stroke-width:0.87883985"
       d="m 69.315868,33.52582 v 2.72353 h 2.03715 v 1.77877 c 0,0.69955 0.0949,1.29365 0.29002,1.77877 0.19334,0.48688 0.47106,0.87444 0.8305,1.16622 0.35769,0.29177 0.79975,0.50182 1.32529,0.62925 0.52467,0.12392 1.10822,0.18719 1.74889,0.18719 0.71714,0 1.43339,-0.029 2.15228,-0.0888 V 38.8577 c -0.0967,0.0185 -0.23289,0.0299 -0.4069,0.0299 h -0.37878 c -0.56422,0 -0.96233,-0.0993 -1.19259,-0.29353 -0.23201,-0.19686 -0.34802,-0.51852 -0.34802,-0.96672 v -1.37802 h 2.32629 V 33.5258 h -2.32629 V 20.61389 h -4.02069 V 33.5258 h -2.03715" /><path
       inkscape:connector-curvature="0"
       id="path3038"
       style="fill:#9ebddb;fill-opacity:1;fill-rule:nonzero;stroke:none;stroke-width:0.87883985"
       d="M 84.001278,36.24935 V 20.61391 h -4.02069 v 15.63544 z m 0,5.36268 v -3.43978 h -4.02069 v 3.43978 h 4.02069" /><path
       inkscape:connector-curvature="0"
       id="path3040"
       style="fill:#9ebddb;fill-opacity:1;fill-rule:nonzero;stroke:none;stroke-width:0.87883985"
       d="m 90.675188,36.24935 v -1.83678 h 0.0422 c 0.42887,0.77689 0.98606,1.34287 1.67155,1.70143 0.68462,0.35945 1.46679,0.53873 2.34914,0.53873 1.2752,0 2.25774,-0.3489 2.94499,-1.0467 0.68462,-0.69692 1.03,-1.82974 1.03,-3.39847 V 20.61391 h -4.02157 v 10.77633 c 0,0.81381 -0.13622,1.37978 -0.4069,1.70055 -0.27244,0.31902 -0.70922,0.47985 -1.31035,0.47985 -1.41757,0 -2.12504,-0.86302 -2.12504,-2.58642 V 20.61391 h -4.01981 v 15.63544 h 3.8458" /><path
       inkscape:connector-curvature="0"
       id="path3042"
       style="fill:#9ebddb;fill-opacity:1;fill-rule:nonzero;stroke:none;stroke-width:0.87883985"
       d="m 108.80742,31.79802 c -0.058,0.45436 -0.16083,0.84017 -0.30584,1.15831 -0.14676,0.3199 -0.34978,0.55982 -0.61255,0.72417 -0.26277,0.16522 -0.59761,0.24695 -1.00539,0.24695 -0.40691,0 -0.7435,-0.0914 -1.00452,-0.27508 -0.26453,-0.1828 -0.47281,-0.42623 -0.62749,-0.72592 -0.15643,-0.29792 -0.26892,-0.63188 -0.33484,-0.99836 -0.0677,-0.36736 -0.1037,-0.73383 -0.1037,-1.09943 v -0.60903 h 4.11033 c -0.0185,0.59761 -0.0589,1.12491 -0.116,1.57839 z m -3.99433,-5.20361 c 0,-0.4693 0.036,-0.92366 0.1037,-1.36044 0.0659,-0.43854 0.17841,-0.82875 0.33484,-1.17062 0.15468,-0.34099 0.35945,-0.61431 0.61167,-0.81908 0.25311,-0.20477 0.56334,-0.30671 0.93245,-0.30671 0.6811,0 1.17501,0.24256 1.487,0.72944 0.31023,0.48599 0.52467,1.22598 0.64067,2.21907 h 3.60676 c -0.0791,-1.82448 -0.56245,-3.21041 -1.45448,-4.16043 -0.89202,-0.94915 -2.29904,-1.42372 -4.22106,-1.42372 -1.458,0 -2.59258,0.2408 -3.4099,0.72592 -0.81645,0.48336 -1.41845,1.12316 -1.80602,1.91675 -0.38932,0.79271 -0.62661,1.68473 -0.71537,2.67255 -0.087,0.98694 -0.13095,1.973 -0.13095,2.96169 0,1.04582 0.0747,2.05209 0.21971,3.02057 0.14501,0.96761 0.43678,1.82975 0.87357,2.58467 0.43678,0.75405 1.06427,1.35517 1.87808,1.79987 0.81556,0.44645 1.90356,0.66879 3.26401,0.66879 1.16534,0 2.12152,-0.18807 2.87029,-0.56509 0.74701,-0.37527 1.33408,-0.90609 1.76207,-1.59246 0.42536,-0.68549 0.71714,-1.516 0.87357,-2.49063 0.15467,-0.97376 0.23377,-2.05912 0.23377,-3.25522 v -0.89818 h -7.95438 v -1.25674" /><path
       inkscape:connector-curvature="0"
       id="path3044"
       style="fill:#9ebddb;fill-opacity:1;fill-rule:nonzero;stroke:none;stroke-width:0.87883985"
       d="m 123.84876,40.71825 v -4.4689 h 2.32541 v -2.72353 h -2.32541 v -8.46147 c 0,-0.62046 0.0914,-1.06252 0.27684,-1.32353 0.18367,-0.26278 0.56596,-0.39372 1.14864,-0.39372 0.1538,0 0.31023,0.005 0.46491,0.0141 0.15379,0.0105 0.2988,0.0246 0.43502,0.0448 v -2.79207 c -0.44469,0 -0.8762,-0.0132 -1.29365,-0.0439 -0.41745,-0.0299 -0.85951,-0.0457 -1.32354,-0.0457 -0.77866,0 -1.41406,0.0545 -1.90883,0.16171 -0.49655,0.10458 -0.87357,0.31902 -1.13635,0.63804 -0.26278,0.32077 -0.44293,0.74174 -0.53873,1.26553 -0.0967,0.52291 -0.14501,1.18204 -0.14501,1.97827 v 8.95801 h -2.03451 v 2.72353 h 2.03451 v 4.4689 h 4.02069" /><path
       inkscape:connector-curvature="0"
       id="path3046"
       style="fill:#9ebddb;fill-opacity:1;fill-rule:nonzero;stroke:none;stroke-width:0.87883985"
       d="m 135.04253,31.79802 c -0.0589,0.45436 -0.16082,0.84017 -0.30759,1.15831 -0.14501,0.3199 -0.34978,0.55982 -0.61167,0.72417 -0.2619,0.16522 -0.59761,0.24695 -1.00539,0.24695 -0.40954,0 -0.74438,-0.0914 -1.0054,-0.27508 -0.26365,-0.1828 -0.47281,-0.42623 -0.62661,-0.72592 -0.15731,-0.29792 -0.26893,-0.63188 -0.3366,-0.99836 -0.0677,-0.36736 -0.10106,-0.73383 -0.10106,-1.09943 v -0.60903 h 4.11121 c -0.0202,0.59761 -0.0606,1.12491 -0.11689,1.57839 z m -3.99432,-5.20361 c 0,-0.4693 0.0334,-0.92366 0.10106,-1.36044 0.0677,-0.43854 0.17929,-0.82875 0.3366,-1.17062 0.1538,-0.34099 0.35857,-0.61431 0.61167,-0.81908 0.25312,-0.20477 0.56422,-0.30671 0.93333,-0.30671 0.68022,0 1.17589,0.24256 1.48612,0.72944 0.31023,0.48599 0.52379,1.22598 0.64243,2.21907 h 3.60588 c -0.0791,-1.82448 -0.56246,-3.21041 -1.45448,-4.16043 -0.8929,-0.94915 -2.29992,-1.42372 -4.22195,-1.42372 -1.45623,0 -2.59433,0.2408 -3.40902,0.72592 -0.81732,0.48336 -1.41756,1.12316 -1.80688,1.91675 -0.38933,0.79271 -0.62749,1.68473 -0.7145,2.67255 -0.0888,0.98694 -0.13182,1.973 -0.13182,2.96169 0,1.04582 0.0738,2.05209 0.21883,3.02057 0.145,0.96761 0.43677,1.82975 0.87443,2.58467 0.43767,0.75405 1.0634,1.35517 1.87721,1.79987 0.81732,0.44645 1.90532,0.66879 3.26489,0.66879 1.16534,0 2.12151,-0.18807 2.86853,-0.56509 0.74701,-0.37527 1.33583,-0.90609 1.76383,-1.59246 0.42624,-0.68549 0.71802,-1.516 0.87181,-2.49063 0.15643,-0.97376 0.23289,-2.05912 0.23289,-3.25522 v -0.89818 h -7.95086 v -1.25674" /><path
       inkscape:connector-curvature="0"
       id="path3048"
       style="fill:#9ebddb;fill-opacity:1;fill-rule:nonzero;stroke:none;stroke-width:0.87883985"
       d="m 148.55294,31.7409 c -0.0475,0.36911 -0.13622,0.70395 -0.26102,1.00539 -0.12831,0.29968 -0.30759,0.54136 -0.54048,0.72504 -0.2329,0.18368 -0.544,0.27684 -0.93069,0.27684 -0.48688,0 -0.885,-0.11074 -1.19698,-0.33308 -0.31023,-0.22411 -0.54401,-0.55279 -0.6978,-0.99046 -0.15556,-0.43502 -0.26278,-0.98605 -0.32166,-1.65485 -0.058,-0.6688 -0.0879,-1.45888 -0.0879,-2.36847 0,-0.97024 0.0299,-1.79723 0.0879,-2.48448 0.0589,-0.68814 0.1661,-1.25587 0.32166,-1.70056 0.15379,-0.44645 0.37175,-0.77074 0.65473,-0.97375 0.28211,-0.20477 0.64683,-0.30496 1.09328,-0.30496 0.67846,0 1.17677,0.29089 1.48612,0.87269 0.31111,0.58091 0.46754,1.5116 0.46754,2.79207 h 3.84317 c 0,-2.05561 -0.46227,-3.62082 -1.38593,-4.693 -0.92278,-1.07131 -2.45197,-1.6074 -4.58667,-1.6074 -1.01066,0 -1.8895,0.12128 -2.6374,0.3612 -0.74789,0.24256 -1.37011,0.67846 -1.86577,1.30771 -0.49391,0.63013 -0.8683,1.47206 -1.1214,2.52667 -0.25311,1.05636 -0.3779,2.36759 -0.3779,3.93632 0,1.6074 0.15555,2.93796 0.4649,3.99257 0.31111,1.05461 0.74877,1.89742 1.31211,2.52667 0.56246,0.63012 1.23389,1.06954 2.01079,1.32265 0.77689,0.25047 1.63113,0.37702 2.56445,0.37702 1.86226,0 3.26577,-0.54224 4.20789,-1.62585 0.94123,-1.08537 1.41493,-2.5583 1.41493,-4.41881 h -3.84317 c 0,0.38669 -0.0255,0.76547 -0.0747,1.13283" /><path
       inkscape:connector-curvature="0"
       id="path3050"
       style="fill:#9ebddb;fill-opacity:1;fill-rule:nonzero;stroke:none;stroke-width:0.87883985"
       d="m 157.85194,41.38792 v -6.74246 h 0.044 c 0.78129,1.33848 2.06352,2.00727 3.8414,2.00727 1.27784,0 2.2595,-0.3489 2.94676,-1.0467 0.68726,-0.69692 1.03,-1.82974 1.03,-3.39847 V 20.61391 h -4.02069 v 10.77633 c 0,0.81381 -0.13623,1.37978 -0.40779,1.70055 -0.27155,0.31902 -0.70921,0.47985 -1.30947,0.47985 -1.41757,0 -2.12415,-0.86302 -2.12415,-2.58642 V 20.61391 h -4.02157 v 20.77401 h 4.02157" /><path
       inkscape:connector-curvature="0"
       id="path3052"
       style="fill:#9ebddb;fill-opacity:1;fill-rule:nonzero;stroke:none;stroke-width:0.87883985"
       d="m 171.50736,36.24935 v -1.83678 h 0.0404 c 0.42888,0.77689 0.9887,1.34287 1.67419,1.70143 0.68374,0.35945 1.46679,0.53873 2.34651,0.53873 1.27695,0 2.25861,-0.3489 2.94588,-1.0467 0.68637,-0.69692 1.03,-1.82974 1.03,-3.39847 V 20.61391 h -4.02069 v 10.77633 c 0,0.81381 -0.13535,1.37978 -0.4078,1.70055 -0.27155,0.31902 -0.70921,0.47985 -1.30947,0.47985 -1.41668,0 -2.12591,-0.86302 -2.12591,-2.58642 V 20.61391 h -4.01893 v 15.63544 h 3.84581" /><path
       inkscape:connector-curvature="0"
       id="path3054"
       style="fill:#9ebddb;fill-opacity:1;fill-rule:nonzero;stroke:none;stroke-width:0.87883985"
       d="m 185.03359,26.2376 c 0.0387,-0.67758 0.13006,-1.25762 0.27508,-1.74274 0.14501,-0.48512 0.3612,-0.8639 0.65122,-1.13458 0.29088,-0.27068 0.67671,-0.4069 1.16006,-0.4069 0.8103,0 1.37274,0.42623 1.68122,1.27871 0.30935,0.8516 0.46403,2.25862 0.46403,4.21755 0,1.95542 -0.15468,3.36069 -0.46403,4.21404 -0.30848,0.85247 -0.87092,1.27871 -1.68122,1.27871 -0.48336,0 -0.86918,-0.13534 -1.16006,-0.40514 -0.29002,-0.27244 -0.50622,-0.65122 -0.65122,-1.13634 -0.14502,-0.48249 -0.23642,-1.06428 -0.27508,-1.7445 -0.0404,-0.67671 -0.058,-1.41405 -0.058,-2.20677 0,-0.79623 0.0176,-1.53182 0.058,-2.21204 z m -3.75968,5.75552 c 0.21443,1.02473 0.56422,1.88336 1.04669,2.57061 0.48512,0.68725 1.1214,1.20928 1.90533,1.56697 0.78656,0.35857 1.74977,0.53697 2.89402,0.53697 1.20225,0.0193 2.19973,-0.13973 2.99596,-0.47809 0.79536,-0.34011 1.42548,-0.85686 1.88951,-1.55554 0.4649,-0.69516 0.79536,-1.55731 0.98957,-2.58291 0.19335,-1.02649 0.2909,-2.2261 0.2909,-3.60149 0,-1.33671 -0.10722,-2.51612 -0.32166,-3.54348 -0.21268,-1.02649 -0.56246,-1.88335 -1.04582,-2.56973 -0.48512,-0.68813 -1.11876,-1.1961 -1.90532,-1.52479 -0.78393,-0.32868 -1.74889,-0.49478 -2.89314,-0.49478 -1.20312,-0.0193 -2.20061,0.13182 -2.99597,0.44996 -0.79446,0.31902 -1.42372,0.82348 -1.8895,1.50985 -0.46666,0.68725 -0.79535,1.55115 -0.98782,2.58555 -0.1951,1.03527 -0.29089,2.23313 -0.29089,3.58742 0,1.33496 0.10546,2.51612 0.31814,3.54348" /><path
       inkscape:connector-curvature="0"
       id="path3056"
       style="fill:#9ebddb;fill-opacity:1;fill-rule:nonzero;stroke:none;stroke-width:0.87883985"
       d="m 194.87484,20.61391 h 4.02069 v 20.77392 h -4.02069 z" /><path
       inkscape:connector-curvature="0"
       id="path3058"
       style="fill:#9ebddb;fill-opacity:1;fill-rule:nonzero;stroke:none;stroke-width:0.87883985"
       d="m 204.54822,26.2376 c 0.0387,-0.67758 0.13007,-1.25762 0.27683,-1.74274 0.14501,-0.48512 0.36121,-0.8639 0.65122,-1.13458 0.28826,-0.27068 0.67671,-0.4069 1.15744,-0.4069 0.81292,0 1.37362,0.42623 1.6821,1.27871 0.30847,0.8516 0.46314,2.25862 0.46314,4.21755 0,1.95542 -0.15467,3.36069 -0.46314,4.21404 -0.30848,0.85247 -0.86918,1.27871 -1.6821,1.27871 -0.48073,0 -0.86918,-0.13534 -1.15744,-0.40514 -0.29001,-0.27244 -0.50621,-0.65122 -0.65122,-1.13634 -0.14676,-0.48249 -0.23816,-1.06428 -0.27683,-1.7445 -0.0387,-0.67671 -0.0571,-1.41405 -0.0571,-2.20677 0,-0.79623 0.0185,-1.53182 0.0571,-2.21204 z m -3.75792,5.75552 c 0.21444,1.02473 0.56158,1.88336 1.04582,2.57061 0.48512,0.68725 1.12052,1.20928 1.90532,1.56697 0.78481,0.35857 1.7489,0.53697 2.89227,0.53697 1.20401,0.0193 2.20061,-0.13973 2.99684,-0.47809 0.79447,-0.34011 1.42636,-0.85686 1.89126,-1.55554 0.46403,-0.69516 0.79272,-1.55731 0.98958,-2.58291 0.19334,-1.02649 0.29001,-2.2261 0.29001,-3.60149 0,-1.33671 -0.10633,-2.51612 -0.32077,-3.54348 -0.21356,-1.02649 -0.56246,-1.88335 -1.04758,-2.56973 -0.48424,-0.68813 -1.11876,-1.1961 -1.90357,-1.52479 -0.78568,-0.32868 -1.74977,-0.49478 -2.89577,-0.49478 -1.19962,-0.0193 -2.19974,0.13182 -2.99509,0.44996 -0.79359,0.31902 -1.42372,0.82348 -1.88951,1.50985 -0.4649,0.68725 -0.79535,1.55115 -0.98869,2.58555 -0.19422,1.03527 -0.29002,2.23313 -0.29002,3.58742 0,1.33496 0.10458,2.51612 0.3199,3.54348" /><path
       inkscape:connector-curvature="0"
       id="path3060"
       style="fill:#9ebddb;fill-opacity:1;fill-rule:nonzero;stroke:none;stroke-width:0.87883985"
       d="m 218.03403,26.40019 c 0.0483,-0.48336 0.14412,-0.914 0.28914,-1.29102 0.14324,-0.37702 0.34626,-0.67846 0.60552,-0.89993 0.26101,-0.22323 0.602,-0.33396 1.0256,-0.33396 0.42272,0 0.77338,0.11073 1.05109,0.33396 0.27948,0.22147 0.50182,0.5273 0.66441,0.91487 0.16257,0.38669 0.27859,0.85599 0.34626,1.40702 0.0677,0.55279 0.10106,1.15568 0.10106,1.81481 0,1.8939 -0.14852,3.24028 -0.44732,4.03387 -0.29881,0.79272 -0.84193,1.19083 -1.63025,1.19083 -0.44294,0 -0.79974,-0.0975 -1.06779,-0.29089 -0.26893,-0.19423 -0.4816,-0.5071 -0.63452,-0.94476 -0.15469,-0.43414 -0.25488,-1.01594 -0.3032,-1.7401 -0.0483,-0.72504 -0.0703,-1.61179 -0.0703,-2.65585 0,-0.54225 0.022,-1.05461 0.0703,-1.53885 z m 7.92536,-5.00939 c 0,-2.01492 -0.4983,-3.5281 -1.49227,-4.5364 -0.99572,-1.00864 -2.662,-1.51222 -4.99971,-1.51222 -1.70055,0 -3.01002,0.36455 -3.92665,1.09337 -0.91751,0.72847 -1.3754,1.76392 -1.3754,3.10705 h 3.84141 c 0,-0.51105 0.20214,-0.91443 0.60289,-1.21201 0.19158,-0.13631 0.39811,-0.24546 0.61782,-0.32271 0.22059,-0.079 0.45612,-0.11943 0.70395,-0.11943 0.80502,0 1.37187,0.26295 1.69792,0.7899 0.32341,0.52765 0.48776,1.17887 0.48776,1.95928 v 2.07495 h -0.0571 c -0.40778,-0.5818 -0.90344,-1.0467 -1.49316,-1.39648 -0.58969,-0.34802 -1.20401,-0.52379 -1.84291,-0.52379 -1.58368,0 -2.77715,0.60464 -3.5804,1.8148 -0.8015,1.21105 -1.20049,3.24029 -1.20049,6.08597 0,0.91048 0.0501,1.83941 0.15818,2.78856 0.10546,0.95002 0.32781,1.80601 0.66704,2.57061 0.33835,0.76459 0.83314,1.39032 1.48084,1.87368 0.64859,0.48424 1.51424,0.7268 2.59873,0.7268 0.56158,0 1.14162,-0.15555 1.74186,-0.46666 0.59937,-0.30847 1.09328,-0.87181 1.47997,-1.68649 h 0.0475 v 1.74977 h 3.84228 V 21.3908" /><path
       inkscape:connector-curvature="0"
       id="path3062"
       style="fill:#9ebddb;fill-opacity:1;fill-rule:nonzero;stroke:none;stroke-width:0.87883985"
       d="m 229.40972,18.472 c 0.73472,0 1.26465,0.19501 1.58368,0.58117 0.31989,0.38863 0.50797,0.90248 0.56773,1.54228 l -4.39332,15.6539 h 4.18855 l 2.32893,-10.82116 h 0.0554 l 2.03715,10.82116 h 4.01454 l -3.78164,-14.60369 c -0.3489,-1.29804 -0.68374,-2.35212 -1.00364,-3.15784 -0.3199,-0.80265 -0.69868,-1.42328 -1.13458,-1.85901 -0.43591,-0.43872 -0.95882,-0.72259 -1.56961,-0.8603 -0.61079,-0.1335 -1.38154,-0.20213 -2.31223,-0.20213 h -1.62937 v 2.99245 c 0.34978,-0.0584 0.69956,-0.0868 1.04846,-0.0868" /><path
       inkscape:connector-curvature="0"
       id="path3064"
       style="fill:#9ebddb;fill-opacity:1;fill-rule:nonzero;stroke:#080a3e;stroke-width:0.2;stroke-miterlimit:4;stroke-dasharray:none;stroke-opacity:1"
       d="m 121.44601,10.30257 c 0.0844,-0.13288 0.1907,-0.23931 0.32254,-0.31823 0.1327,-0.0783 0.28122,-0.13455 0.44821,-0.16962 0.16698,-0.0326 0.33835,-0.0511 0.51412,-0.0511 0.13622,0 0.27947,0.0117 0.42975,0.0292 0.14765,0.022 0.2865,0.0608 0.41218,0.11434 0.12479,0.0535 0.22937,0.1342 0.31111,0.23895 0.0808,0.10538 0.12215,0.23993 0.12215,0.39996 0,0.22587 -0.0852,0.3961 -0.2531,0.51043 -0.17138,0.11707 -0.38318,0.2118 -0.63804,0.2822 -0.25486,0.0711 -0.52906,0.13455 -0.82875,0.19159 -0.29968,0.0591 -0.57564,0.1407 -0.82962,0.24511 -0.25486,0.10748 -0.46579,0.25407 -0.6354,0.44557 -0.16962,0.18816 -0.25487,0.45216 -0.25487,0.79201 0,0.26532 0.058,0.49197 0.17753,0.68382 0.11864,0.18816 0.27244,0.34433 0.45788,0.4628 0.18719,0.11908 0.39811,0.20662 0.63012,0.26436 0.23553,0.0583 0.46755,0.0868 0.6978,0.0868 0.29881,0 0.57389,-0.025 0.82523,-0.0755 0.25047,-0.0536 0.47282,-0.14079 0.66529,-0.26646 0.19422,-0.12594 0.34889,-0.29591 0.46314,-0.51043 0.11601,-0.21391 0.18456,-0.48064 0.20389,-0.79992 h -0.87093 c -0.0141,0.16997 -0.0562,0.31348 -0.13094,0.42395 -0.0756,0.11504 -0.1705,0.206 -0.2865,0.27402 -0.11337,0.0693 -0.23993,0.11803 -0.37878,0.14932 -0.13886,0.0305 -0.28035,0.0453 -0.42185,0.0453 -0.12831,0 -0.26013,-0.009 -0.38932,-0.0298 -0.13359,-0.0217 -0.25311,-0.057 -0.36296,-0.10853 -0.10722,-0.0488 -0.19599,-0.11838 -0.2619,-0.20152 -0.0685,-0.0865 -0.10194,-0.19844 -0.10194,-0.33194 0,-0.1487 0.0501,-0.27393 0.15819,-0.37113 0.10458,-0.10019 0.23816,-0.18025 0.40075,-0.24546 0.16346,-0.0642 0.34714,-0.11838 0.55015,-0.16171 0.20301,-0.0467 0.4069,-0.0913 0.6108,-0.13965 0.21795,-0.0457 0.42887,-0.10264 0.6354,-0.17067 0.2074,-0.0683 0.3902,-0.15959 0.54927,-0.2705 0.16171,-0.11329 0.29002,-0.25302 0.38757,-0.42264 0.0984,-0.16953 0.14764,-0.38071 0.14764,-0.63197 0,-0.31823 -0.0659,-0.58364 -0.19949,-0.79544 -0.13183,-0.20908 -0.30496,-0.37966 -0.5194,-0.50771 -0.21531,-0.12839 -0.45611,-0.219 -0.72504,-0.2698 -0.26629,-0.0512 -0.53521,-0.0766 -0.79974,-0.0766 -0.29354,0 -0.57213,0.0309 -0.83842,0.0924 -0.26365,0.0598 -0.4983,0.16004 -0.70219,0.30144 -0.20565,0.13974 -0.36648,0.32061 -0.48951,0.54998 -0.12392,0.22692 -0.19159,0.50534 -0.20565,0.83244 h 0.87269 c 0.006,-0.19255 0.051,-0.35532 0.13094,-0.48951" /><path
       inkscape:connector-curvature="0"
       id="path3066"
       style="fill:#9ebddb;fill-opacity:1;fill-rule:nonzero;stroke:#080a3e;stroke-width:0.2;stroke-miterlimit:4;stroke-dasharray:none;stroke-opacity:1"
       d="m 132.74437,10.90193 c 0.0853,-0.24888 0.20213,-0.4562 0.35066,-0.62239 0.14853,-0.1668 0.3243,-0.2952 0.52291,-0.38309 0.19949,-0.0879 0.41393,-0.13288 0.63628,-0.13288 0.22234,0 0.4359,0.045 0.6354,0.13288 0.20038,0.0879 0.37262,0.21629 0.52291,0.38309 0.14764,0.16619 0.26541,0.37351 0.35065,0.62239 0.0844,0.24687 0.12656,0.53074 0.12656,0.85072 0,0.31999 -0.0422,0.6035 -0.12656,0.85107 -0.0852,0.24783 -0.20301,0.45621 -0.35065,0.62784 -0.15029,0.17164 -0.32254,0.29802 -0.52291,0.38792 -0.1995,0.0875 -0.41306,0.13148 -0.6354,0.13148 -0.22235,0 -0.43679,-0.0439 -0.63628,-0.13148 -0.19862,-0.0899 -0.37439,-0.21628 -0.52291,-0.38792 -0.14853,-0.17163 -0.26541,-0.38001 -0.35066,-0.62784 -0.0844,-0.24757 -0.12655,-0.53108 -0.12655,-0.85107 0,-0.31998 0.0422,-0.60385 0.12655,-0.85072 z m -0.8806,1.93416 c 0.1081,0.33712 0.27244,0.62757 0.48864,0.87646 0.21795,0.24783 0.48512,0.44083 0.80413,0.58425 0.31814,0.14246 0.68374,0.21391 1.09768,0.21391 0.42096,0 0.78831,-0.0715 1.10294,-0.21391 0.31462,-0.14342 0.58179,-0.33642 0.79799,-0.58425 0.21795,-0.24889 0.38053,-0.53934 0.48863,-0.87646 0.1081,-0.33467 0.16259,-0.69587 0.16259,-1.08344 0,-0.3859 -0.0545,-0.74464 -0.16259,-1.0793 -0.1081,-0.33229 -0.27068,-0.62037 -0.48863,-0.86926 -0.2162,-0.24784 -0.48337,-0.44013 -0.79799,-0.57916 -0.31462,-0.13965 -0.68198,-0.20907 -1.10294,-0.20907 -0.41394,0 -0.77954,0.0694 -1.09768,0.20907 -0.31901,0.13903 -0.58618,0.33132 -0.80413,0.57916 -0.2162,0.24889 -0.38054,0.53697 -0.48864,0.86926 -0.1081,0.33466 -0.16171,0.6934 -0.16171,1.0793 0,0.38757 0.0536,0.74877 0.16171,1.08344" /><path
       inkscape:connector-curvature="0"
       id="path3068"
       style="fill:#9ebddb;fill-opacity:1;fill-rule:nonzero;stroke:#080a3e;stroke-width:0.2;stroke-miterlimit:4;stroke-dasharray:none;stroke-opacity:1"
       d="m 143.99352,9.12747 h 0.87025 v 7.27103 h -0.87025 z" /><path
       inkscape:connector-curvature="0"
       id="path3070"
       style="fill:#9ebddb;fill-opacity:1;fill-rule:nonzero;stroke:#080a3e;stroke-width:0.2;stroke-miterlimit:4;stroke-dasharray:none;stroke-opacity:1"
       d="m 155.85961,9.12747 -0.004,0.8349 h -0.0149 c -0.18544,-0.32509 -0.42096,-0.56404 -0.70659,-0.71714 -0.28474,-0.15274 -0.62222,-0.22937 -1.00803,-0.22937 -0.34714,0 -0.63803,0.0457 -0.86829,0.13806 -0.23289,0.0913 -0.41921,0.22244 -0.56158,0.39205 -0.14413,0.16953 -0.24256,0.37421 -0.29968,0.60728 -0.0589,0.23448 -0.0879,0.49365 -0.0879,0.77927 v 3.46623 h 0.87181 v -3.57266 c 0,-0.32684 0.0949,-0.58496 0.28475,-0.77478 0.18982,-0.19194 0.45084,-0.28774 0.78392,-0.28774 0.26453,0 0.49215,0.0423 0.68374,0.12155 0.1951,0.0824 0.35593,0.19949 0.48512,0.34775 0.12918,0.15037 0.22586,0.3279 0.29088,0.52836 0.0624,0.19774 0.0958,0.41851 0.0958,0.65641 v 2.98111 h 0.87268 V 9.12747 h -0.81732" /><path
       inkscape:connector-curvature="0"
       id="path3072"
       style="fill:#9ebddb;fill-opacity:1;fill-rule:nonzero;stroke:#080a3e;stroke-width:0.2;stroke-miterlimit:4;stroke-dasharray:none;stroke-opacity:1"
       d="m 166.33011,14.38715 v -0.7587 h -1.03967 v -3.27333 c 0,-0.10265 0.008,-0.18201 0.0255,-0.24414 0.0167,-0.0597 0.0492,-0.1081 0.0958,-0.14343 0.0475,-0.0323 0.1125,-0.0536 0.19774,-0.0666 0.0817,-0.009 0.19247,-0.0158 0.32693,-0.0158 h 0.39373 V 9.1275 H 165.671 c -0.22234,0 -0.41392,0.0158 -0.573,0.045 -0.15731,0.0305 -0.2865,0.0886 -0.38493,0.16952 -0.0967,0.0807 -0.16962,0.19607 -0.21708,0.34609 -0.0483,0.15037 -0.0712,0.34538 -0.0712,0.59146 l -0.005,3.34891 h -0.89641 v 0.7587 h 0.89641 v 1.58666 h 0.87093 v -1.58666 h 1.03967" /><path
       inkscape:connector-curvature="0"
       id="path3074"
       style="fill:#9ebddb;fill-opacity:1;fill-rule:nonzero;stroke:#080a3e;stroke-width:0.2;stroke-miterlimit:4;stroke-dasharray:none;stroke-opacity:1"
       d="M 174.32756,14.39295 V 9.12747 h -0.87181 v 5.26548 z m -0.87181,0.9451 v 1.06041 h 0.87181 v -1.06041 h -0.87181" /><path
       inkscape:connector-curvature="0"
       id="path3076"
       style="fill:#9ebddb;fill-opacity:1;fill-rule:nonzero;stroke:#080a3e;stroke-width:0.2;stroke-miterlimit:4;stroke-dasharray:none;stroke-opacity:1"
       d="m 182.53592,10.90193 c 0.0844,-0.24888 0.20037,-0.4562 0.34978,-0.62239 0.14852,-0.1668 0.32253,-0.2952 0.52203,-0.38309 0.20037,-0.0879 0.41217,-0.13288 0.63628,-0.13288 0.2241,0 0.43502,0.045 0.63628,0.13288 0.19949,0.0879 0.37263,0.21629 0.52379,0.38309 0.14852,0.16619 0.26453,0.37351 0.34977,0.62239 0.0835,0.24687 0.12744,0.53074 0.12744,0.85072 0,0.31999 -0.0439,0.6035 -0.12744,0.85107 -0.0852,0.24783 -0.20125,0.45621 -0.34977,0.62784 -0.15116,0.17164 -0.3243,0.29802 -0.52379,0.38792 -0.20126,0.0875 -0.41218,0.13148 -0.63628,0.13148 -0.22411,0 -0.43591,-0.0439 -0.63628,-0.13148 -0.1995,-0.0899 -0.37351,-0.21628 -0.52203,-0.38792 -0.14941,-0.17163 -0.26541,-0.38001 -0.34978,-0.62784 -0.0852,-0.24757 -0.12743,-0.53108 -0.12743,-0.85107 0,-0.31998 0.0422,-0.60385 0.12743,-0.85072 z m -0.8806,1.93416 c 0.1081,0.33712 0.2698,0.62757 0.48777,0.87646 0.21619,0.24783 0.48336,0.44083 0.8015,0.58425 0.31989,0.14246 0.68637,0.21391 1.09943,0.21391 0.42184,0 0.78744,-0.0715 1.10382,-0.21391 0.31375,-0.14342 0.58091,-0.33642 0.79623,-0.58425 0.21795,-0.24889 0.38054,-0.53934 0.49039,-0.87646 0.1081,-0.33467 0.16259,-0.69587 0.16259,-1.08344 0,-0.3859 -0.0545,-0.74464 -0.16259,-1.0793 -0.10985,-0.33229 -0.27244,-0.62037 -0.49039,-0.86926 -0.21532,-0.24784 -0.48248,-0.44013 -0.79623,-0.57916 -0.31638,-0.13965 -0.68198,-0.20907 -1.10382,-0.20907 -0.41306,0 -0.77953,0.0694 -1.09943,0.20907 -0.31814,0.13903 -0.58531,0.33132 -0.8015,0.57916 -0.21797,0.24889 -0.37967,0.53697 -0.48777,0.86926 -0.10898,0.33466 -0.16345,0.6934 -0.16345,1.0793 0,0.38757 0.0545,0.74877 0.16345,1.08344" /><path
       inkscape:connector-curvature="0"
       id="path3078"
       style="fill:#9ebddb;fill-opacity:1;fill-rule:nonzero;stroke:#080a3e;stroke-width:0.2;stroke-miterlimit:4;stroke-dasharray:none;stroke-opacity:1"
       d="m 194.54702,14.38952 v -0.83665 h 0.0185 c 0.35944,0.63926 0.93157,0.95784 1.71374,0.95784 0.34626,0 0.6354,-0.0484 0.86741,-0.14246 0.23026,-0.0954 0.41745,-0.22656 0.5607,-0.39688 0.14237,-0.16821 0.24344,-0.3721 0.30144,-0.60491 0.0571,-0.23341 0.0853,-0.49434 0.0853,-0.77821 V 9.12747 h -0.87181 v 3.5651 c 0,0.32482 -0.0932,0.58197 -0.28386,0.77452 -0.18983,0.18948 -0.45085,0.28387 -0.78393,0.28387 -0.26365,0 -0.49303,-0.0405 -0.68549,-0.12251 -0.19423,-0.08 -0.35506,-0.19607 -0.48337,-0.34609 -0.13006,-0.14756 -0.22498,-0.32333 -0.29089,-0.52414 -0.0642,-0.19844 -0.0967,-0.41956 -0.0967,-0.65676 V 9.12747 h -0.87094 v 5.26205 h 0.81996" /><path
       inkscape:connector-curvature="0"
       id="path3080"
       style="fill:#9ebddb;fill-opacity:1;fill-rule:nonzero;stroke:#080a3e;stroke-width:0.2;stroke-miterlimit:4;stroke-dasharray:none;stroke-opacity:1"
       d="m 206.16969,10.30257 c 0.0817,-0.13288 0.18807,-0.23931 0.32078,-0.31823 0.13358,-0.0783 0.28122,-0.13455 0.4482,-0.16962 0.16698,-0.0326 0.33836,-0.0511 0.51413,-0.0511 0.13709,0 0.28035,0.0117 0.42887,0.0292 0.1494,0.022 0.28738,0.0608 0.41218,0.11434 0.12743,0.0535 0.23025,0.1342 0.31286,0.23895 0.0809,0.10538 0.12128,0.23993 0.12128,0.39996 0,0.22587 -0.0826,0.3961 -0.2531,0.51043 -0.16962,0.11707 -0.3823,0.2118 -0.63628,0.2822 -0.25487,0.0711 -0.53082,0.13455 -0.82963,0.19159 -0.29968,0.0591 -0.57564,0.1407 -0.8305,0.24511 -0.25399,0.10748 -0.46579,0.25407 -0.63628,0.44557 -0.16962,0.18816 -0.25487,0.45216 -0.25487,0.79201 0,0.26532 0.0606,0.49197 0.17929,0.68382 0.11776,0.18816 0.27068,0.34433 0.45787,0.4628 0.18632,0.11908 0.39636,0.20662 0.63189,0.26436 0.23201,0.0583 0.46403,0.0868 0.69604,0.0868 0.29881,0 0.57388,-0.025 0.82435,-0.0755 0.25135,-0.0536 0.47194,-0.14079 0.66704,-0.26646 0.19335,-0.12594 0.34539,-0.29591 0.46315,-0.51043 0.11425,-0.21391 0.18192,-0.48064 0.20213,-0.79992 h -0.87093 c -0.0123,0.16997 -0.0571,0.31348 -0.13094,0.42395 -0.0747,0.11504 -0.16962,0.206 -0.28387,0.27402 -0.11601,0.0693 -0.24344,0.11803 -0.3823,0.14932 -0.13709,0.0305 -0.27771,0.0453 -0.42096,0.0453 -0.12831,0 -0.2575,-0.009 -0.38933,-0.0298 -0.1327,-0.0217 -0.2531,-0.057 -0.3612,-0.10853 -0.1081,-0.0488 -0.1951,-0.11838 -0.26453,-0.20152 -0.0677,-0.0865 -0.10019,-0.19844 -0.10019,-0.33194 0,-0.1487 0.0527,-0.27393 0.15819,-0.37113 0.10459,-0.10019 0.23817,-0.18025 0.40076,-0.24546 0.1617,-0.0642 0.34538,-0.11838 0.55015,-0.16171 0.20301,-0.0467 0.40778,-0.0913 0.60991,-0.13965 0.21708,-0.0457 0.42888,-0.10264 0.63716,-0.17067 0.20741,-0.0683 0.38933,-0.15959 0.55016,-0.2705 0.15819,-0.11329 0.28738,-0.25302 0.38581,-0.42264 0.0993,-0.16953 0.14676,-0.38071 0.14676,-0.63197 0,-0.31823 -0.0668,-0.58364 -0.19861,-0.79544 -0.13359,-0.20908 -0.30672,-0.37966 -0.5194,-0.50771 -0.21619,-0.12839 -0.457,-0.219 -0.72504,-0.2698 -0.26981,-0.0512 -0.53697,-0.0766 -0.8015,-0.0766 -0.29178,0 -0.57037,0.0309 -0.83666,0.0924 -0.26277,0.0598 -0.49918,0.16004 -0.70307,0.30144 -0.20389,0.13974 -0.36736,0.32061 -0.48776,0.54998 -0.12567,0.22692 -0.19246,0.50534 -0.20565,0.83244 h 0.87093 c 0.008,-0.19255 0.0501,-0.35532 0.13271,-0.48951" /></g></svg>