<?xml version="1.0" encoding="UTF-8" standalone="no"?>
<!-- Created with Inkscape (http://www.inkscape.org/) -->

<svg
   xmlns:dc="http://purl.org/dc/elements/1.1/"
   xmlns:cc="http://creativecommons.org/ns#"
   xmlns:rdf="http://www.w3.org/1999/02/22-rdf-syntax-ns#"
   xmlns:svg="http://www.w3.org/2000/svg"
   xmlns="http://www.w3.org/2000/svg"
   xmlns:sodipodi="http://sodipodi.sourceforge.net/DTD/sodipodi-0.dtd"
   xmlns:inkscape="http://www.inkscape.org/namespaces/inkscape"
   width="225"
   height="150"
   viewBox="0 0 59.531246 39.687499"
   version="1.1"
   id="svg2780"
   inkscape:version="0.92.2 (5c3e80d, 2017-08-06)"
   sodipodi:docname="FTS_LOGO_ONLY_blue-gray_swoosh_225x150px.svg">
  <defs
     id="defs2774" />
  <sodipodi:namedview
     id="base"
     pagecolor="#ffffff"
     bordercolor="#666666"
     borderopacity="1.0"
     inkscape:pageopacity="0.0"
     inkscape:pageshadow="2"
     inkscape:zoom="2.8284271"
     inkscape:cx="136.28135"
     inkscape:cy="99.930274"
     inkscape:document-units="px"
     inkscape:current-layer="layer1"
     showgrid="false"
     units="px"
     inkscape:window-width="1920"
     inkscape:window-height="1137"
     inkscape:window-x="-8"
     inkscape:window-y="-8"
     inkscape:window-maximized="1" />
  <metadata
     id="metadata2777">
    <rdf:RDF>
      <cc:Work
         rdf:about="">
        <dc:format>image/svg+xml</dc:format>
        <dc:type
           rdf:resource="http://purl.org/dc/dcmitype/StillImage" />
        <dc:title></dc:title>
      </cc:Work>
    </rdf:RDF>
  </metadata>
  <g
     inkscape:label="Layer 1"
     inkscape:groupmode="layer"
     id="layer1"
     transform="translate(0,-257.3125)">
    <g
       id="g3335"
       transform="matrix(2.7832162,0,0,2.7746554,822.96567,-423.16347)">
      <path
         inkscape:connector-curvature="0"
         id="path3030"
         style="fill:#485b6e;fill-opacity:1;fill-rule:nonzero;stroke:#080a3e;stroke-width:0.13229166;stroke-miterlimit:4;stroke-dasharray:none;stroke-opacity:1"
         d="m -276.04062,254.20739 c -0.94028,2.92861 -5.63469,4.08081 -10.48549,2.57357 -4.85224,-1.50779 -8.02303,-5.10346 -7.08333,-8.03271 0.93999,-2.92896 5.63412,-4.08171 10.48636,-2.57407 4.85137,1.50765 8.02216,5.10454 7.08246,8.03321 z m -6.93306,-8.10761 c -5.76084,-1.78988 -11.33741,-0.42146 -12.45324,3.05743 -1.11584,3.47801 2.64992,7.75001 8.41193,9.54052 5.76142,1.79017 11.3374,0.42123 12.45382,-3.05647 1.11584,-3.47894 -2.64993,-7.75074 -8.41251,-9.54148" />
      <path
         inkscape:connector-curvature="0"
         id="path3034"
         style="fill:#080a3e;fill-opacity:1;stroke:#9ebddb;stroke-width:0.58131593;stroke-linecap:butt;stroke-linejoin:miter;stroke-miterlimit:4;stroke-dasharray:none;stroke-opacity:1"
         d="m -293.70943,255.17906 2.13082,-7.82655 h 12.88457 c 0,0 1.19897,0.0294 1.7579,0.40838 l -0.78158,1.40707 c 0,0 -1.2475,-0.72286 -2.40025,-0.18893 0,0 -1.21931,0.68625 0.0392,1.37191 0,0 0.87023,0.40721 1.33732,0.68624 0,0 1.11816,0.56359 0.69903,1.94654 0,0 -0.35461,1.81399 -2.76503,2.32239 0,0 -1.61664,0.348 -3.17021,-0.39765 l 0.75542,-1.44109 c 0,0 1.68698,1.00016 3.03999,0.11074 0,0 0.88622,-0.78739 -0.32379,-1.37161 0,0 -0.52493,-0.25433 -0.6656,-0.30548 -0.14068,-0.0506 -1.05131,-0.40634 -1.33267,-1.27047 0,0 -0.29008,-0.73653 0.46563,-1.80382 h -1.88462 l -1.71721,6.30466 h -1.83318 l 1.72331,-6.33024 h -4.37847 l -0.48366,1.77679 h 2.80311 l -0.38832,1.42946 h -2.8031 l -0.85861,3.1702 z" />
    </g>
  </g>
</svg>
